<?xml version="1.0" encoding="UTF-8" standalone="no"?>
<svg
   fill="#000000"
   version="1.1"
   x="0px"
   y="0px"
   viewBox="0 0 170.1 170.1"
   enable-background="new 0 0 170.1 170.1"
   xml:space="preserve"
   id="svg44"
   sodipodi:docname="wongi.svg"
   inkscape:version="1.2.2 (b0a8486, 2022-12-01)"
   xmlns:inkscape="http://www.inkscape.org/namespaces/inkscape"
   xmlns:sodipodi="http://sodipodi.sourceforge.net/DTD/sodipodi-0.dtd"
   xmlns="http://www.w3.org/2000/svg"
   xmlns:svg="http://www.w3.org/2000/svg"><defs
     id="defs48" /><sodipodi:namedview
     id="namedview46"
     pagecolor="#505050"
     bordercolor="#ffffff"
     borderopacity="1"
     inkscape:showpageshadow="0"
     inkscape:pageopacity="0"
     inkscape:pagecheckerboard="1"
     inkscape:deskcolor="#505050"
     showgrid="false"
     inkscape:zoom="6.0376247"
     inkscape:cx="84.967189"
     inkscape:cy="85.050003"
     inkscape:window-width="1390"
     inkscape:window-height="1205"
     inkscape:window-x="2240"
     inkscape:window-y="25"
     inkscape:window-maximized="0"
     inkscape:current-layer="svg44" /><path
     fill="#FFFFFF"
     d="M113.4,87.9c-0.8-18.9-0.8-68.3,8.4-81.5c1.1-1.6,0.9-3.8-0.5-5.2c-1.4-1.4-3.6-1.6-5.2-0.5  c-2.3,1.6-57.6,40.4-61.5,86.8l4.1,0.3c-21.4,0-38.8,14.2-38.8,35.6c0,21.4,17.4,45,38.8,45c7.9,0,15.1-3.2,21.2-8.3  C71,150,65.6,136.4,65.6,123.5c0-12.3,5-23.1,13.2-30.8c-4.8-2.5-10.3-4.1-16.1-4.6c2.6-30.2,30.5-58,46.7-71.7  c-5.8,24.6-4.5,64.4-4.1,72c-18.2,2.6-32.1,16-32.1,35.1c0,21.4,17.4,45,38.8,45c21.4,0,38.8-23.6,38.8-45  C150.6,102.6,134.1,88.6,113.4,87.9z M131.5,124.9c-2.2-9.3-7.2-18.6-3.2-19c3.3-0.3,9.1,1,10.7,8.3  C140.7,121.4,132.5,129.1,131.5,124.9z"
     id="path42"
     style="fill:#800000" /></svg>
